<svg xmlns="http://www.w3.org/2000/svg" style="display: none;"><symbol id="video" viewBox="0 0 512 512"><title>video</title><path d="m437.02 74.98c-48.353-48.351-112.64-74.98-181.02-74.98s-132.667 26.629-181.02 74.98c-48.351 48.353-74.98 112.64-74.98 181.02s26.629 132.667 74.98 181.02c48.353 48.351 112.64 74.98 181.02 74.98s132.667-26.629 181.02-74.98c48.351-48.353 74.98-112.64 74.98-181.02s-26.629-132.667-74.98-181.02zm-181.02 407.02c-124.617 0-226-101.383-226-226s101.383-226 226-226 226 101.383 226 226-101.383 226-226 226z"/><path d="m374.782 243.84-180-130c-4.566-3.298-10.596-3.759-15.611-1.195s-8.171 7.722-8.171 13.355v260c0 5.633 3.156 10.791 8.171 13.355 2.154 1.102 4.495 1.645 6.827 1.645 3.097 0 6.179-.958 8.784-2.84l180-130c3.904-2.82 6.218-7.344 6.218-12.16s-2.312-9.34-6.218-12.16zm-173.782 112.824v-201.328l139.381 100.664z"/></symbol><symbol id="computer" viewBox="0 0 512 512"><title>computer</title><g> <g> <path d="M407.07,377.01c-1.86-1.86-4.44-2.93-7.07-2.93s-5.21,1.07-7.07,2.93c-1.86,1.86-2.93,4.44-2.93,7.07s1.07,5.21,2.93,7.07 c1.86,1.87,4.44,2.93,7.07,2.93s5.21-1.06,7.07-2.93c1.86-1.86,2.93-4.44,2.93-7.07S408.93,378.871,407.07,377.01z"/> </g> </g><g> <g> <path d="M472,0.001H40c-22.056,0-40,17.944-40,40v314.083c0,22.056,17.944,40,40,40h157v50.197 c-29.332,2.858-52.333,27.65-52.333,57.719c0,5.523,4.477,10,10,10h202.667c5.523,0,10-4.477,10-10 c0-30.749-24.055-55.972-54.333-57.872v-50.044h46.667c5.523,0,10-4.477,10-10s-4.477-10-10-10H40c-11.028,0-20-8.972-20-20 V40.001c0-11.028,8.972-20,20-20h432c11.028,0,20,8.972,20,20v314.083c0,11.028-8.972,20-20,20h-37.333c-5.523,0-10,4.477-10,10 s4.477,10,10,10H472c22.056,0,40-17.944,40-40V40.001C512,17.944,494.056,0.001,472,0.001z M217,394.084h76v49.917h-76V394.084z M309.333,464.001c17.494,0,32.265,11.882,36.666,28H166.001c4.4-16.118,19.171-28,36.665-28H309.333z"/> </g> </g><g> <g> <path d="M262.07,345.011c-1.86-1.86-4.44-2.93-7.07-2.93c-2.63,0-5.21,1.07-7.07,2.93c-1.86,1.86-2.93,4.44-2.93,7.07 c0,2.64,1.07,5.21,2.93,7.07c1.86,1.87,4.44,2.93,7.07,2.93s5.21-1.06,7.07-2.93c1.86-1.86,2.93-4.43,2.93-7.07 C265,349.451,263.93,346.871,262.07,345.011z"/> </g> </g><g> <g> <path d="M146.196,183.314l48.996-48.995c3.906-3.905,3.906-10.237,0.001-14.142c-3.905-3.905-10.237-3.905-14.143,0 l-56.066,56.066c-3.905,3.905-3.905,10.237,0,14.143l56.066,56.066c1.953,1.953,4.512,2.929,7.071,2.929 c2.559,0,5.119-0.976,7.071-2.929c3.905-3.905,3.905-10.237,0-14.143L146.196,183.314z"/> </g> </g><g> <g> <path d="M387.015,176.243l-56.066-56.066c-3.905-3.905-10.237-3.905-14.143,0c-3.905,3.905-3.905,10.237,0,14.143l48.996,48.995 l-48.996,48.995c-3.904,3.905-3.904,10.237,0.001,14.142c1.953,1.953,4.512,2.929,7.071,2.929s5.119-0.976,7.071-2.929 l56.066-56.066C390.92,186.48,390.92,180.149,387.015,176.243z"/> </g> </g><g> <g> <path d="M273.557,121.53c-5.334-1.432-10.818,1.737-12.248,7.071l-29.938,111.731c-1.429,5.335,1.737,10.818,7.071,12.248 c0.867,0.232,1.738,0.343,2.595,0.343c4.415,0,8.456-2.947,9.653-7.414l29.938-111.731 C282.058,128.442,278.892,122.96,273.557,121.53z"/> </g> </g><g> <g> <path d="M462,40.084H303c-5.523,0-10,4.477-10,10s4.477,10,10,10h149v250H60v-250h153.5c5.523,0,10-4.477,10-10s-4.477-10-10-10 H50c-5.523,0-10,4.477-10,10v270c0,5.523,4.477,10,10,10h412c5.523,0,10-4.477,10-10v-270C472,44.561,467.523,40.084,462,40.084z"/> </g> </g><g> <g> <path d="M265.07,43.011c-1.86-1.86-4.44-2.93-7.07-2.93s-5.21,1.07-7.07,2.93s-2.93,4.44-2.93,7.07s1.07,5.21,2.93,7.08 c1.86,1.86,4.44,2.92,7.07,2.92s5.21-1.06,7.07-2.92c1.86-1.87,2.93-4.44,2.93-7.08C268,47.451,266.93,44.871,265.07,43.011z"/> </g> </g></symbol><symbol id="brush" viewBox="0 0 512 512"><title>brush</title><path d="m451.648.356c-25.777 2.712-56.79 19.872-94.811 52.46-68.786 58.958-149.927 160.756-202.185 234-38.158-5.951-78.375 10.368-102.187 40.133-43.707 54.635-7.118 103.391-48.345 146.862-7.179 7.569-4.618 20.005 4.98 24.114 67.447 28.876 153.664 10.879 194.109-31.768 24.718-26.063 38.167-64.54 31.411-100.762 72.281-55.462 172.147-140.956 228.7-211.885 31.316-39.277 47.208-70.872 48.584-96.59 1.855-34.647-25.034-60.266-60.256-56.564zm-270.205 445.155c-27.362 28.85-87.899 45.654-141.767 31.287 30.12-48.043 4.229-91.124 36.214-131.106 26.246-32.808 79.034-41.993 109.709-11.317 35.839 35.843 19.145 86.566-4.156 111.136zm3.07-148.841c7.354-10.167 18.887-25.865 33.29-44.659l49.22 49.224c-18.125 14.906-33.263 26.86-43.077 34.494-8.842-15.879-22.526-30.108-39.433-39.059zm297.435-241.354c-3.368 63.004-143.842 186.021-191.797 226.621l-53.785-53.79c39.458-49.96 155.261-191.312 218.422-197.954 16.851-1.775 28.03 8.858 27.16 25.123z"/></symbol><symbol id="smartphone" viewBox="0 0 480 480"><title>smartphone</title><g> <g> <path d="M352,0H128c-22.08,0.026-39.974,17.92-40,40v400c0.026,22.08,17.92,39.974,40,40h224c22.08-0.026,39.974-17.92,40-40V40 C391.974,17.92,374.08,0.026,352,0z M376,440c0,13.255-10.745,24-24,24H128c-13.255,0-24-10.745-24-24v-40h272V440z M376,384H104 V64h272V384z M376,48H104v-8c0-13.255,10.745-24,24-24h224c13.255,0,24,10.745,24,24V48z"/> </g> </g><g> <g> <path d="M240,408c-13.255,0-24,10.745-24,24s10.745,24,24,24s24-10.745,24-24S253.255,408,240,408z M240,440c-4.418,0-8-3.582-8-8 s3.582-8,8-8s8,3.582,8,8S244.418,440,240,440z"/> </g> </g><g> <g> <path d="M248,24h-16c-4.418,0-8,3.582-8,8s3.582,8,8,8h16c4.418,0,8-3.582,8-8S252.418,24,248,24z"/> </g> </g></symbol><symbol id="pie-chart" viewBox="0 0 480.02695 480"><title>pie-chart</title><path d="m455.46875 255.972656-231.496094.039063v-231.429688c-.003906-2.21875-.921875-4.335937-2.546875-5.847656-1.613281-1.53125-3.796875-2.304687-6.015625-2.128906-123.519531 8.855469-218.308594 113.160156-215.3437498 236.960937 2.9648438 123.804688 102.6406248 223.449219 226.4453128 226.378906 123.800781 2.929688 228.082031-91.890624 236.898437-215.410156.15625-2.21875-.617187-4.402344-2.136718-6.023437-1.515626-1.625-3.640626-2.542969-5.863282-2.539063zm-223.441406 208.039063c-114.667969.078125-209.410156-89.460938-215.804688-203.953125-6.394531-114.488282 77.785156-214.023438 191.75-226.71875v230.671875c0 4.421875 3.578125 8 8 8l230.734375-.039063c-12.480469 109.207032-104.765625 191.757813-214.679687 192.039063zm0 0"/><path d="m248.027344.0117188c-4.417969 0-8 3.5820312-8 8.0000002v224c0 4.421875 3.582031 8 8 8h224c4.417968 0 8-3.578125 8-8-.148438-128.066407-103.933594-231.847657-232-232.0000002zm8 224.0000002v-207.847657c112.960937 4.304688 203.542968 94.890626 207.847656 207.847657zm0 0"/></symbol><symbol id="gameboy" viewBox="-64 0 511 512"><title>gameboy</title><path d="m328.800781 0h-273.132812c-30.421875 0-55.167969 24.746094-55.167969 55.167969v401.664062c0 30.421875 24.75 55.167969 55.167969 55.167969h232.964843c52.566407 0 95.332032-42.765625 95.332032-95.332031v-361.5c0-30.421875-24.746094-55.167969-55.164063-55.167969zm25.164063 416.667969c0 36.023437-29.308594 65.332031-65.332032 65.332031h-232.964843c-13.878907 0-25.167969-11.289062-25.167969-25.167969v-401.664062c0-13.878907 11.289062-25.167969 25.167969-25.167969h273.132812c13.875 0 25.164063 11.289062 25.164063 25.167969zm0 0"/><path d="m79.765625 287.066406h224.933594c8.285156 0 15-6.714844 15-15v-192.800781c0-8.285156-6.714844-15-15-15h-224.933594c-8.28125 0-15 6.714844-15 15v192.800781c0 8.285156 6.71875 15 15 15zm15-192.800781h194.933594v162.800781h-194.933594zm0 0"/><path d="m168.136719 369.53125h-33.203125v-33.199219c0-8.28125-6.714844-15-15-15s-15 6.71875-15 15v33.199219h-33.199219c-8.285156 0-15 6.71875-15 15 0 8.285156 6.714844 15 15 15h33.199219v33.203125c0 8.28125 6.714844 15 15 15s15-6.71875 15-15v-33.203125h33.199218c8.285157 0 15-6.714844 15-15 0-8.28125-6.714843-15-14.996093-15zm0 0"/><path d="m227.398438 374.53125c-21.558594 0-39.097657 17.542969-39.097657 39.101562 0 21.5625 17.539063 39.101563 39.097657 39.101563 21.5625 0 39.101562-17.539063 39.101562-39.101563 0-21.558593-17.539062-39.101562-39.101562-39.101562zm0 48.203125c-5.015626 0-9.097657-4.082031-9.097657-9.101563 0-5.019531 4.082031-9.101562 9.097657-9.101562 5.019531 0 9.101562 4.082031 9.101562 9.101562 0 5.019532-4.082031 9.101563-9.101562 9.101563zm0 0"/><path d="m285.601562 316.332031c-21.558593 0-39.101562 17.542969-39.101562 39.101563 0 21.5625 17.542969 39.101562 39.101562 39.101562 21.5625 0 39.101563-17.539062 39.101563-39.101562 0-21.558594-17.542969-39.101563-39.101563-39.101563zm0 48.203125c-5.015624 0-9.101562-4.082031-9.101562-9.101562 0-5.019532 4.085938-9.101563 9.101562-9.101563 5.019532 0 9.101563 4.082031 9.101563 9.101563 0 5.019531-4.082031 9.101562-9.101563 9.101562zm0 0"/></symbol><symbol id="heart" viewBox="0 0 477.534 477.534"><title>heart</title><path d="M438.482,58.61c-24.7-26.549-59.311-41.655-95.573-41.711c-36.291,0.042-70.938,15.14-95.676,41.694l-8.431,8.909 l-8.431-8.909C181.284,5.762,98.662,2.728,45.832,51.815c-2.341,2.176-4.602,4.436-6.778,6.778 c-52.072,56.166-52.072,142.968,0,199.134l187.358,197.581c6.482,6.843,17.284,7.136,24.127,0.654 c0.224-0.212,0.442-0.43,0.654-0.654l187.29-197.581C490.551,201.567,490.551,114.77,438.482,58.61z M413.787,234.226h-0.017 L238.802,418.768L63.818,234.226c-39.78-42.916-39.78-109.233,0-152.149c36.125-39.154,97.152-41.609,136.306-5.484 c1.901,1.754,3.73,3.583,5.484,5.484l20.804,21.948c6.856,6.812,17.925,6.812,24.781,0l20.804-21.931 c36.125-39.154,97.152-41.609,136.306-5.484c1.901,1.754,3.73,3.583,5.484,5.484C453.913,125.078,454.207,191.516,413.787,234.226 z"/></symbol><symbol id="pin" viewBox="0 0 64.355 64.355"><title>pin</title><path d="M32.177,0C19.863,0,9.845,10.02,9.845,22.334c0,11.854,20.262,39.549,21.124,40.721l0.806,1.097 c0.094,0.129,0.244,0.204,0.402,0.204c0.16,0,0.309-0.075,0.403-0.204l0.806-1.097c0.862-1.172,21.125-28.867,21.125-40.721 C54.511,10.019,44.491,0,32.177,0z M32.177,3c10.66,0,19.334,8.674,19.334,19.334c0,9.361-15.279,31.541-19.334,37.262 c-4.055-5.721-19.332-27.896-19.332-37.262C12.845,11.674,21.517,3,32.177,3z"/><g> <path d="M32.177,30.834c-4.687,0-8.5-3.813-8.5-8.5c0-4.688,3.813-8.5,8.5-8.5c4.688,0,8.5,3.813,8.5,8.5 C40.677,27.02,36.864,30.834,32.177,30.834z M32.177,15.834c-3.584,0-6.5,2.916-6.5,6.5s2.916,6.5,6.5,6.5s6.5-2.916,6.5-6.5 S35.761,15.834,32.177,15.834z"/> </g></symbol><symbol id="phone" viewBox="0 0 512.021 512.021"><title>phone</title><path d="m367.988 512.021c-16.528 0-32.916-2.922-48.941-8.744-70.598-25.646-136.128-67.416-189.508-120.795s-95.15-118.91-120.795-189.508c-8.241-22.688-10.673-46.108-7.226-69.612 3.229-22.016 11.757-43.389 24.663-61.809 12.963-18.501 30.245-33.889 49.977-44.5 21.042-11.315 44.009-17.053 68.265-17.053 7.544 0 14.064 5.271 15.645 12.647l25.114 117.199c1.137 5.307-.494 10.829-4.331 14.667l-42.913 42.912c40.482 80.486 106.17 146.174 186.656 186.656l42.912-42.913c3.838-3.837 9.361-5.466 14.667-4.331l117.199 25.114c7.377 1.581 12.647 8.101 12.647 15.645 0 24.256-5.738 47.224-17.054 68.266-10.611 19.732-25.999 37.014-44.5 49.977-18.419 12.906-39.792 21.434-61.809 24.663-6.899 1.013-13.797 1.518-20.668 1.519zm-236.349-479.321c-31.995 3.532-60.393 20.302-79.251 47.217-21.206 30.265-26.151 67.49-13.567 102.132 49.304 135.726 155.425 241.847 291.151 291.151 34.641 12.584 71.866 7.64 102.132-13.567 26.915-18.858 43.685-47.256 47.217-79.251l-95.341-20.43-44.816 44.816c-4.769 4.769-12.015 6.036-18.117 3.168-95.19-44.72-172.242-121.772-216.962-216.962-2.867-6.103-1.601-13.349 3.168-18.117l44.816-44.816z"/></symbol><symbol id="facebook" viewBox="0 0 310 310"><title>facebook</title><path id="XMLID_835_" d="M81.703,165.106h33.981V305c0,2.762,2.238,5,5,5h57.616c2.762,0,5-2.238,5-5V165.765h39.064 c2.54,0,4.677-1.906,4.967-4.429l5.933-51.502c0.163-1.417-0.286-2.836-1.234-3.899c-0.949-1.064-2.307-1.673-3.732-1.673h-44.996 V71.978c0-9.732,5.24-14.667,15.576-14.667c1.473,0,29.42,0,29.42,0c2.762,0,5-2.239,5-5V5.037c0-2.762-2.238-5-5-5h-40.545 C187.467,0.023,186.832,0,185.896,0c-7.035,0-31.488,1.381-50.804,19.151c-21.402,19.692-18.427,43.27-17.716,47.358v37.752H81.703 c-2.762,0-5,2.238-5,5v50.844C76.703,162.867,78.941,165.106,81.703,165.106z"/></symbol><symbol id="twitter" viewBox="0 0 512 512"><title>twitter</title><path d="M512,97.248c-19.04,8.352-39.328,13.888-60.48,16.576c21.76-12.992,38.368-33.408,46.176-58.016 c-20.288,12.096-42.688,20.64-66.56,25.408C411.872,60.704,384.416,48,354.464,48c-58.112,0-104.896,47.168-104.896,104.992 c0,8.32,0.704,16.32,2.432,23.936c-87.264-4.256-164.48-46.08-216.352-109.792c-9.056,15.712-14.368,33.696-14.368,53.056 c0,36.352,18.72,68.576,46.624,87.232c-16.864-0.32-33.408-5.216-47.424-12.928c0,0.32,0,0.736,0,1.152 c0,51.008,36.384,93.376,84.096,103.136c-8.544,2.336-17.856,3.456-27.52,3.456c-6.72,0-13.504-0.384-19.872-1.792 c13.6,41.568,52.192,72.128,98.08,73.12c-35.712,27.936-81.056,44.768-130.144,44.768c-8.608,0-16.864-0.384-25.12-1.44 C46.496,446.88,101.6,464,161.024,464c193.152,0,298.752-160,298.752-298.688c0-4.64-0.16-9.12-0.384-13.568 C480.224,136.96,497.728,118.496,512,97.248z"/></symbol><symbol id="basketball" viewBox="0 0 512 512"><title>basketball</title><path d="M256,0C115.04,0,0,115.05,0,256c0,140.96,115.05,256,256,256c140.96,0,256-115.05,256-256C512,115.04,396.95,0,256,0z M429.64,111.51c31.96,38.34,51.47,87.39,52.31,140.89c-40.06-9.37-84.55-10-129.86-1.74c-11.79,2.15-23.58,4.88-35.3,8.16 c-3.9-10.61-8.04-21.13-12.44-31.55c-4.49-10.63-9.23-21.08-14.19-31.38C344.15,175.27,402.65,144.57,429.64,111.51z M256,30 c58.82,0,112.45,22.59,152.7,59.54C393,110.95,348.26,142.12,276.48,169c-25.06-46.66-55.11-89.54-89.83-128.1 C208.51,33.83,231.82,30,256,30z M156.95,52.9c35.41,37.93,65.87,80.29,90.96,126.05c-74.68,24.17-150.29,34.03-212.46,27.66 C50.59,138.96,96.14,82.67,156.95,52.9z M30,256c0-6.64,0.31-13.21,0.87-19.7c13.72,1.45,28.03,2.18,42.82,2.18 c58.33,0,123.86-11.22,188.21-32.53c9.82,20.1,18.65,40.78,26.44,61.97c-25.09,9.02-49.51,20.49-72.44,34.14 c-56.22,33.47-97.35,76.53-114.41,118.71C57.52,379.51,30,320.91,30,256z M256,482c-48.29,0-93.09-15.23-129.86-41.14 c11.4-38.52,49.96-80.19,105.11-113.02c19.43-11.58,42.15-22.49,66.88-31.36c17.53,55.1,28.27,113.26,31.68,173.13 C306.67,477.63,281.84,482,256,482z M359.07,457.1c-4.16-58.32-15.02-115.1-32.45-169.64c48.6-13.36,102.58-17.84,153.77-4.56 C471.33,358.91,424.41,423.47,359.07,457.1z"/></symbol><symbol id="logo" viewBox="0 0 169.063 169.063"><title>logo</title><path d="M122.406,0H46.654C20.929,0,0,20.93,0,46.655v75.752c0,25.726,20.929,46.655,46.654,46.655h75.752 c25.727,0,46.656-20.93,46.656-46.655V46.655C169.063,20.93,148.133,0,122.406,0z M154.063,122.407 c0,17.455-14.201,31.655-31.656,31.655H46.654C29.2,154.063,15,139.862,15,122.407V46.655C15,29.201,29.2,15,46.654,15h75.752 c17.455,0,31.656,14.201,31.656,31.655V122.407z"/><path d="M84.531,40.97c-24.021,0-43.563,19.542-43.563,43.563c0,24.02,19.542,43.561,43.563,43.561s43.563-19.541,43.563-43.561 C128.094,60.512,108.552,40.97,84.531,40.97z M84.531,113.093c-15.749,0-28.563-12.812-28.563-28.561 c0-15.75,12.813-28.563,28.563-28.563s28.563,12.813,28.563,28.563C113.094,100.281,100.28,113.093,84.531,113.093z"/><path d="M129.921,28.251c-2.89,0-5.729,1.17-7.77,3.22c-2.051,2.04-3.23,4.88-3.23,7.78c0,2.891,1.18,5.73,3.23,7.78 c2.04,2.04,4.88,3.22,7.77,3.22c2.9,0,5.73-1.18,7.78-3.22c2.05-2.05,3.22-4.89,3.22-7.78c0-2.9-1.17-5.74-3.22-7.78 C135.661,29.421,132.821,28.251,129.921,28.251z"/></symbol><symbol id="google-plus" viewBox="0 0 475.092 475.092"><title>google-plus</title><path d="M273.372,302.498c-5.041-6.762-10.608-13.045-16.7-18.842c-6.091-5.804-12.183-11.088-18.271-15.845 c-6.092-4.757-11.659-9.329-16.702-13.709c-5.042-4.374-9.135-8.945-12.275-13.702c-3.14-4.757-4.711-9.61-4.711-14.558 c0-6.855,2.19-13.278,6.567-19.274c4.377-5.996,9.707-11.799,15.986-17.417c6.28-5.617,12.559-11.753,18.844-18.415 c6.276-6.665,11.604-15.465,15.985-26.412c4.373-10.944,6.563-23.458,6.563-37.542c0-16.75-3.713-32.835-11.136-48.25 c-7.423-15.418-17.89-27.412-31.405-35.976h38.54L303.2,0H178.441c-17.699,0-35.498,1.906-53.384,5.72 c-26.453,5.9-48.723,19.368-66.806,40.397C40.171,67.15,31.129,90.99,31.129,117.637c0,28.171,10.138,51.583,30.406,70.233 c20.269,18.649,44.585,27.978,72.945,27.978c5.71,0,12.371-0.478,19.985-1.427c-0.381,1.521-1.043,3.567-1.997,6.136 s-1.715,4.62-2.286,6.14c-0.57,1.521-1.047,3.375-1.425,5.566c-0.382,2.19-0.571,4.428-0.571,6.71 c0,12.563,6.086,26.744,18.271,42.541c-14.465,0.387-28.737,1.67-42.825,3.86c-14.084,2.19-28.833,5.616-44.252,10.28 c-15.417,4.661-29.217,11.42-41.396,20.27c-12.182,8.854-21.317,19.366-27.408,31.549C3.533,361.559,0.01,374.405,0.01,386.017 c0,12.751,2.857,24.314,8.565,34.69c5.708,10.369,13.035,18.842,21.982,25.406c8.945,6.57,19.273,12.083,30.978,16.562 c11.704,4.47,23.315,7.659,34.829,9.562c11.516,1.903,22.888,2.854,34.119,2.854c51.007,0,90.981-12.464,119.909-37.397 c26.648-23.223,39.971-50.062,39.971-80.517c0-10.855-1.57-20.984-4.712-30.409C282.51,317.337,278.42,309.254,273.372,302.498z M163.311,198.722c-9.707,0-18.937-2.475-27.694-7.426c-8.757-4.95-16.18-11.374-22.27-19.273 c-6.088-7.898-11.418-16.796-15.987-26.695c-4.567-9.896-7.944-19.792-10.135-29.692c-2.19-9.895-3.284-19.318-3.284-28.265 c0-18.271,4.854-33.974,14.562-47.108c9.705-13.134,23.411-19.701,41.112-19.701c12.563,0,23.935,3.899,34.118,11.704 c10.183,7.804,18.177,17.701,23.984,29.692c5.802,11.991,10.277,24.407,13.417,37.257c3.14,12.847,4.711,24.983,4.711,36.403 c0,19.036-4.139,34.317-12.419,45.833C195.144,192.964,181.775,198.722,163.311,198.722z M242.251,413.123 c-5.23,8.949-12.319,15.94-21.267,20.981c-8.946,5.048-18.509,8.758-28.693,11.14c-10.183,2.385-20.889,3.572-32.12,3.572 c-12.182,0-24.27-1.431-36.258-4.284c-11.99-2.851-23.459-7.187-34.403-12.991c-10.944-5.8-19.795-13.798-26.551-23.982 c-6.757-10.184-10.135-21.744-10.135-34.69c0-11.419,2.568-21.601,7.708-30.55c5.142-8.945,11.709-16.084,19.702-21.408 c7.994-5.332,17.319-9.713,27.979-13.131c10.66-3.433,20.937-5.808,30.833-7.139c9.895-1.335,19.985-1.995,30.262-1.995 c6.283,0,11.043,0.191,14.277,0.567c1.143,0.767,4.043,2.759,8.708,5.996s7.804,5.428,9.423,6.57 c1.615,1.137,4.567,3.326,8.85,6.563c4.281,3.237,7.327,5.661,9.135,7.279c1.803,1.618,4.421,4.045,7.849,7.279 c3.424,3.237,5.948,6.043,7.566,8.422c1.615,2.378,3.616,5.28,5.996,8.702c2.38,3.433,4.043,6.715,4.998,9.855 c0.948,3.142,1.854,6.567,2.707,10.277c0.855,3.72,1.283,7.569,1.283,11.57C250.105,393.713,247.487,404.182,242.251,413.123z"/><polygon points="401.998,73.089 401.998,0 365.449,0 365.449,73.089 292.358,73.089 292.358,109.636 365.449,109.636 365.449,182.725 401.998,182.725 401.998,109.636 475.081,109.636 475.081,73.089 "/></symbol><symbol id="youtube" viewBox="-21 -117 682.66672 682"><title>youtube</title><path d="m626.8125 64.035156c-7.375-27.417968-28.992188-49.03125-56.40625-56.414062-50.082031-13.703125-250.414062-13.703125-250.414062-13.703125s-200.324219 0-250.40625 13.183593c-26.886719 7.375-49.03125 29.519532-56.40625 56.933594-13.179688 50.078125-13.179688 153.933594-13.179688 153.933594s0 104.378906 13.179688 153.933594c7.382812 27.414062 28.992187 49.027344 56.410156 56.410156 50.605468 13.707031 250.410156 13.707031 250.410156 13.707031s200.324219 0 250.40625-13.183593c27.417969-7.378907 49.03125-28.992188 56.414062-56.40625 13.175782-50.082032 13.175782-153.933594 13.175782-153.933594s.527344-104.382813-13.183594-154.460938zm-370.601562 249.878906v-191.890624l166.585937 95.945312zm0 0"/></symbol></svg>